<mxfile host="app.diagrams.net" agent="Mozilla/5.0 (Windows NT 10.0; Win64; x64) AppleWebKit/537.36 (KHTML, like Gecko) Chrome/130.0.0.0 Safari/537.36" version="24.8.3">
  <diagram name="Page-1" id="M5Wk4aH_2PJSNhZ0P2gs">
    <mxGraphModel dx="989" dy="509" grid="1" gridSize="10" guides="1" tooltips="1" connect="1" arrows="1" fold="1" page="1" pageScale="1" pageWidth="850" pageHeight="1100" math="0" shadow="0">
      <root>
        <mxCell id="0" />
        <mxCell id="1" parent="0" />
        <mxCell id="8WPdodEFidBUqrJR1dXE-16" style="rounded=0;orthogonalLoop=1;jettySize=auto;html=1;entryX=0.5;entryY=1;entryDx=0;entryDy=0;endArrow=none;endFill=0;exitX=1;exitY=0.5;exitDx=0;exitDy=0;" edge="1" parent="1" source="8WPdodEFidBUqrJR1dXE-1" target="8WPdodEFidBUqrJR1dXE-3">
          <mxGeometry relative="1" as="geometry" />
        </mxCell>
        <mxCell id="8WPdodEFidBUqrJR1dXE-17" style="rounded=0;orthogonalLoop=1;jettySize=auto;html=1;endArrow=none;endFill=0;" edge="1" parent="1" source="8WPdodEFidBUqrJR1dXE-1" target="8WPdodEFidBUqrJR1dXE-5">
          <mxGeometry relative="1" as="geometry" />
        </mxCell>
        <mxCell id="8WPdodEFidBUqrJR1dXE-18" style="rounded=0;orthogonalLoop=1;jettySize=auto;html=1;entryX=0.5;entryY=0;entryDx=0;entryDy=0;endArrow=none;endFill=0;exitX=1;exitY=0.5;exitDx=0;exitDy=0;" edge="1" parent="1" source="8WPdodEFidBUqrJR1dXE-1" target="8WPdodEFidBUqrJR1dXE-6">
          <mxGeometry relative="1" as="geometry" />
        </mxCell>
        <mxCell id="8WPdodEFidBUqrJR1dXE-1" value="a1" style="ellipse;whiteSpace=wrap;html=1;aspect=fixed;fillColor=#e3c800;fontColor=#000000;strokeColor=#B09500;" vertex="1" parent="1">
          <mxGeometry x="140" y="250" width="40" height="40" as="geometry" />
        </mxCell>
        <mxCell id="8WPdodEFidBUqrJR1dXE-19" style="rounded=0;orthogonalLoop=1;jettySize=auto;html=1;entryX=1;entryY=0.5;entryDx=0;entryDy=0;endArrow=none;endFill=0;exitX=0.5;exitY=1;exitDx=0;exitDy=0;" edge="1" parent="1" source="8WPdodEFidBUqrJR1dXE-2" target="8WPdodEFidBUqrJR1dXE-1">
          <mxGeometry relative="1" as="geometry" />
        </mxCell>
        <mxCell id="8WPdodEFidBUqrJR1dXE-20" style="rounded=0;orthogonalLoop=1;jettySize=auto;html=1;entryX=0.5;entryY=1;entryDx=0;entryDy=0;endArrow=none;endFill=0;exitX=0.5;exitY=1;exitDx=0;exitDy=0;" edge="1" parent="1" source="8WPdodEFidBUqrJR1dXE-2" target="8WPdodEFidBUqrJR1dXE-3">
          <mxGeometry relative="1" as="geometry" />
        </mxCell>
        <mxCell id="8WPdodEFidBUqrJR1dXE-21" style="rounded=0;orthogonalLoop=1;jettySize=auto;html=1;entryX=0;entryY=0.5;entryDx=0;entryDy=0;endArrow=none;endFill=0;" edge="1" parent="1" target="8WPdodEFidBUqrJR1dXE-5">
          <mxGeometry relative="1" as="geometry">
            <mxPoint x="240" y="190" as="sourcePoint" />
          </mxGeometry>
        </mxCell>
        <mxCell id="8WPdodEFidBUqrJR1dXE-2" value="a2" style="ellipse;whiteSpace=wrap;html=1;aspect=fixed;fillColor=#60a917;fontColor=#ffffff;strokeColor=#2D7600;" vertex="1" parent="1">
          <mxGeometry x="220" y="150" width="40" height="40" as="geometry" />
        </mxCell>
        <mxCell id="8WPdodEFidBUqrJR1dXE-22" style="rounded=0;orthogonalLoop=1;jettySize=auto;html=1;entryX=0;entryY=0.5;entryDx=0;entryDy=0;endArrow=none;endFill=0;exitX=0.5;exitY=1;exitDx=0;exitDy=0;" edge="1" parent="1" source="8WPdodEFidBUqrJR1dXE-3" target="8WPdodEFidBUqrJR1dXE-5">
          <mxGeometry relative="1" as="geometry" />
        </mxCell>
        <mxCell id="8WPdodEFidBUqrJR1dXE-3" value="a3" style="ellipse;whiteSpace=wrap;html=1;aspect=fixed;fillColor=#1ba1e2;fontColor=#ffffff;strokeColor=#006EAF;" vertex="1" parent="1">
          <mxGeometry x="350" y="150" width="40" height="40" as="geometry" />
        </mxCell>
        <mxCell id="8WPdodEFidBUqrJR1dXE-5" value="a4" style="ellipse;whiteSpace=wrap;html=1;aspect=fixed;fillColor=#6a00ff;fontColor=#ffffff;strokeColor=#3700CC;" vertex="1" parent="1">
          <mxGeometry x="440" y="250" width="40" height="40" as="geometry" />
        </mxCell>
        <mxCell id="8WPdodEFidBUqrJR1dXE-12" style="rounded=0;orthogonalLoop=1;jettySize=auto;html=1;entryX=0.5;entryY=1;entryDx=0;entryDy=0;endArrow=none;endFill=0;exitX=0.5;exitY=0;exitDx=0;exitDy=0;" edge="1" parent="1" source="8WPdodEFidBUqrJR1dXE-6" target="8WPdodEFidBUqrJR1dXE-2">
          <mxGeometry relative="1" as="geometry" />
        </mxCell>
        <mxCell id="8WPdodEFidBUqrJR1dXE-13" style="rounded=0;orthogonalLoop=1;jettySize=auto;html=1;entryX=0.5;entryY=1;entryDx=0;entryDy=0;endArrow=none;endFill=0;" edge="1" parent="1" source="8WPdodEFidBUqrJR1dXE-6" target="8WPdodEFidBUqrJR1dXE-3">
          <mxGeometry relative="1" as="geometry" />
        </mxCell>
        <mxCell id="8WPdodEFidBUqrJR1dXE-14" style="rounded=0;orthogonalLoop=1;jettySize=auto;html=1;entryX=0;entryY=0.5;entryDx=0;entryDy=0;endArrow=none;endFill=0;" edge="1" parent="1" target="8WPdodEFidBUqrJR1dXE-5">
          <mxGeometry relative="1" as="geometry">
            <mxPoint x="370" y="350" as="sourcePoint" />
          </mxGeometry>
        </mxCell>
        <mxCell id="8WPdodEFidBUqrJR1dXE-15" style="rounded=0;orthogonalLoop=1;jettySize=auto;html=1;endArrow=none;endFill=0;exitX=0.5;exitY=0;exitDx=0;exitDy=0;" edge="1" parent="1" source="8WPdodEFidBUqrJR1dXE-6">
          <mxGeometry relative="1" as="geometry">
            <mxPoint x="240" y="350" as="targetPoint" />
          </mxGeometry>
        </mxCell>
        <mxCell id="8WPdodEFidBUqrJR1dXE-6" value="b" style="ellipse;whiteSpace=wrap;html=1;aspect=fixed;fillColor=#e51400;fontColor=#ffffff;strokeColor=#B20000;" vertex="1" parent="1">
          <mxGeometry x="350" y="350" width="40" height="40" as="geometry" />
        </mxCell>
        <mxCell id="8WPdodEFidBUqrJR1dXE-8" style="rounded=0;orthogonalLoop=1;jettySize=auto;html=1;endArrow=none;endFill=0;entryX=1;entryY=0.5;entryDx=0;entryDy=0;exitX=0.5;exitY=0;exitDx=0;exitDy=0;" edge="1" parent="1" source="8WPdodEFidBUqrJR1dXE-7" target="8WPdodEFidBUqrJR1dXE-1">
          <mxGeometry relative="1" as="geometry">
            <mxPoint x="180" y="300" as="targetPoint" />
          </mxGeometry>
        </mxCell>
        <mxCell id="8WPdodEFidBUqrJR1dXE-9" style="rounded=0;orthogonalLoop=1;jettySize=auto;html=1;entryX=0.5;entryY=1;entryDx=0;entryDy=0;endArrow=none;endFill=0;" edge="1" parent="1" source="8WPdodEFidBUqrJR1dXE-7" target="8WPdodEFidBUqrJR1dXE-2">
          <mxGeometry relative="1" as="geometry" />
        </mxCell>
        <mxCell id="8WPdodEFidBUqrJR1dXE-10" style="rounded=0;orthogonalLoop=1;jettySize=auto;html=1;entryX=0.5;entryY=1;entryDx=0;entryDy=0;endArrow=none;endFill=0;exitX=0.5;exitY=0;exitDx=0;exitDy=0;" edge="1" parent="1" source="8WPdodEFidBUqrJR1dXE-7" target="8WPdodEFidBUqrJR1dXE-3">
          <mxGeometry relative="1" as="geometry" />
        </mxCell>
        <mxCell id="8WPdodEFidBUqrJR1dXE-11" style="rounded=0;orthogonalLoop=1;jettySize=auto;html=1;entryX=0;entryY=0.5;entryDx=0;entryDy=0;endArrow=none;endFill=0;" edge="1" parent="1" target="8WPdodEFidBUqrJR1dXE-5">
          <mxGeometry relative="1" as="geometry">
            <mxPoint x="240" y="350" as="sourcePoint" />
          </mxGeometry>
        </mxCell>
        <mxCell id="8WPdodEFidBUqrJR1dXE-7" value="c" style="ellipse;whiteSpace=wrap;html=1;aspect=fixed;fillColor=#b0e3e6;strokeColor=#0e8088;" vertex="1" parent="1">
          <mxGeometry x="220" y="350" width="40" height="40" as="geometry" />
        </mxCell>
      </root>
    </mxGraphModel>
  </diagram>
</mxfile>
